{"title":"Whitechapel.COMPLETE.Mini.Series.DVDRip.XviD","uid":5602954,"size":1101009264,"categoryP":"video","categoryS":"movies","magnet":"?xt=urn:btih:c1eb6fcc211d6da14172ed0ab0193cca1583794b&amp;dn=Whitechapel.COMPLETE.Mini.Series.DVDRip.XviD&amp;tr=udp%3A%2F%2Ftracker.openbittorrent.com%3A80&amp;tr=udp%3A%2F%2Fopen.demonii.com%3A1337&amp;tr=udp%3A%2F%2Ftracker.coppersurfer.tk%3A6969&amp;tr=udp%3A%2F%2Fexodus.desync.com%3A6969","seeders":2,"leechers":0,"uploader":"thelad53","files":24,"time":1275412756,"description":"\t                                     Whitechapel DVDRip XviD-unknow\n\n\nCodec ID : XVID\n  Codec ID/Hint : XviD\n  Duration : 2h 16mn\n  Bit rate : 943 Kbps\n  Width : 640 pixels\n  Height : 352 pixels\n  Display aspect ratio : 16/9\n  Frame rate : 25.000 fps\n  Resolution : 24 bits\n  Colorimetry : 4:2:0\n  Scan type : Progressive\n  Bits/(Pixel*Frame) : 0.167\n  Stream size : 919 MiB (88%)\n  Writing library : XviD 1.2.0SMP (UTC 2006-01-08)\n\n Audio\n  Format : MPEG Audio\n  Format version : Version 1\n  Format profile : Layer 3\n  Codec ID : 55\n  Codec ID/Hint : MP3\n  Duration : 2h 16mn\n  Bit rate mode : Variable\n  Bit rate : 122 Kbps\n  Minimum bit rate : 128 Kbps\n  Channel(s) : 2 channels\n  Sampling rate : 48.0 KHz\n  Resolution : 16 bits\n  Stream size : 119 MiB (11%)\n  Alignment : Aligned on interleaves\n  Interleave, duration : 24 ms (0.60 video frame)\n  Writing library : LAME3.97\n  Encoding settings : ABR\n\nLink: &lt;a href=&quot; http://www.imdb.com/title/tt1186356/&quot; rel=&quot;nofollow&quot; target=&quot;_NEW&quot;&gt; http://www.imdb.com/title/tt1186356/&lt;/a&gt;\n\nPlot:  Set in 2008 and against the hugely atmospheric background of Whitechapel, London, a modern police force are fighting an old adversary. A series of bloody, tragic and impossible crimes would suggest someone is carrying out copycat Jack the Ripper murders. The murders are investigated by our three unlikely heroes: Chandler (Penry-Jones), a fast-tracked, media savvy DI on his first big murder case; Miles (Phil Davis), nearing retirement, a front-line, hard-bitten DS, and Buchan, the eccentrically brilliant Jack the Ripper tour guide","torrent":{"xt":"urn:btih:c1eb6fcc211d6da14172ed0ab0193cca1583794b","amp;dn":"Whitechapel.COMPLETE.Mini.Series.DVDRip.XviD","amp;tr":["udp%3A%2F%2Ftracker.openbittorrent.com%3A80","udp%3A%2F%2Fopen.demonii.com%3A1337","udp%3A%2F%2Ftracker.coppersurfer.tk%3A6969","udp%3A%2F%2Fexodus.desync.com%3A6969"],"infoHash":"c1eb6fcc211d6da14172ed0ab0193cca1583794b","infoHashBuffer":{"type":"Buffer","data":[193,235,111,204,33,29,109,161,65,114,237,10,176,25,60,202,21,131,121,75]},"announce":[],"urlList":[]}}